<svg width="28" height="29" viewBox="0 0 28 29" fill="none" xmlns="http://www.w3.org/2000/svg">
<ellipse cx="14.153" cy="14.6769" rx="13.5417" ry="13.9931" fill="#272727"/>
<path d="M11.0495 12.0054H8.50339C8.39039 12.0054 8.29883 12.097 8.29883 12.2099V20.3895C8.29883 20.5025 8.39039 20.5941 8.50339 20.5941H11.0495C11.1625 20.5941 11.2541 20.5025 11.2541 20.3895V12.2099C11.2541 12.097 11.1625 12.0054 11.0495 12.0054Z" fill="white"/>
<path d="M9.77778 7.93909C8.85135 7.93909 8.09766 8.69196 8.09766 9.61737C8.09766 10.5432 8.85135 11.2963 9.77778 11.2963C10.7035 11.2963 11.4565 10.5431 11.4565 9.61737C11.4566 8.69196 10.7035 7.93909 9.77778 7.93909Z" fill="white"/>
<path d="M17.5269 11.802C16.5043 11.802 15.7484 12.2416 15.2899 12.7411V12.2099C15.2899 12.0969 15.1983 12.0053 15.0853 12.0053H12.6469C12.5339 12.0053 12.4424 12.0969 12.4424 12.2099V20.3894C12.4424 20.5024 12.5339 20.594 12.6469 20.594H15.1875C15.3005 20.594 15.3921 20.5024 15.3921 20.3894V16.3424C15.3921 14.9787 15.7625 14.4474 16.7131 14.4474C17.7485 14.4474 17.8307 15.2991 17.8307 16.4126V20.3895C17.8307 20.5025 17.9223 20.5941 18.0353 20.5941H20.5768C20.6898 20.5941 20.7814 20.5025 20.7814 20.3895V15.9028C20.7814 13.875 20.3947 11.802 17.5269 11.802Z" fill="white"/>
</svg>
