<?xml version="1.0" encoding="utf-8"?>
<!-- Generator: Adobe Illustrator 26.1.0, SVG Export Plug-In . SVG Version: 6.00 Build 0)  -->
<svg version="1.1" id="Capa_1" xmlns="http://www.w3.org/2000/svg" xmlns:xlink="http://www.w3.org/1999/xlink" x="0px" y="0px"
	 viewBox="0 0 28 29" style="enable-background:new 0 0 28 29;" xml:space="preserve">
<style type="text/css">
	.st0{fill:#272727;}
	.st1{fill:#FFFFFF;}
</style>
<circle class="st0" cx="14" cy="14.7" r="14"/>
<path class="st1" d="M10.8,15.1h1.7v6.4c0,0.1,0.1,0.2,0.2,0.2h2.8c0.1,0,0.2-0.1,0.2-0.2v-6.4h1.9c0.1,0,0.2-0.1,0.2-0.2l0.3-2.4
	c0-0.1,0-0.1-0.1-0.2c0,0-0.1-0.1-0.2-0.1h-2.2v-1.5c0-0.4,0.3-0.7,0.8-0.7c0.1,0,1.4,0,1.4,0c0.1,0,0.2-0.1,0.2-0.2V7.8
	c0-0.1-0.1-0.2-0.2-0.2h-2c0,0,0,0-0.1,0c-0.3,0-1.5,0.1-2.5,0.9c-1,0.9-0.9,2-0.9,2.2v1.7h-1.7c-0.1,0-0.2,0.1-0.2,0.2v2.3
	C10.5,15,10.6,15.1,10.8,15.1z"/>
</svg>
