<svg width="28" height="29" viewBox="0 0 28 29" fill="none" xmlns="http://www.w3.org/2000/svg">
<circle cx="13.9931" cy="14.6769" r="13.9931" fill="#272727"/>
<path d="M10.1613 15.1183H11.7285V21.2293C11.7285 21.3499 11.8317 21.4477 11.9591 21.4477H14.6164C14.7437 21.4477 14.847 21.3499 14.847 21.2293V15.1471H16.6486C16.7658 15.1471 16.8643 15.0638 16.8777 14.9536L17.1513 12.7039C17.1588 12.642 17.1381 12.58 17.0944 12.5335C17.0506 12.4871 16.988 12.4605 16.9223 12.4605H14.8471V11.0502C14.8471 10.6251 15.0887 10.4095 15.5654 10.4095C15.6334 10.4095 16.9223 10.4095 16.9223 10.4095C17.0497 10.4095 17.1529 10.3117 17.1529 10.1911V8.12604C17.1529 8.00538 17.0497 7.90762 16.9223 7.90762H15.0523C15.0391 7.90701 15.0099 7.90601 14.9667 7.90601C14.6422 7.90601 13.5144 7.96633 12.6236 8.74258C11.6365 9.60278 11.7737 10.6327 11.8065 10.8113V12.4604H10.1613C10.0339 12.4604 9.93066 12.5582 9.93066 12.6788V14.8998C9.93066 15.0205 10.0339 15.1183 10.1613 15.1183Z" fill="white"/>
</svg>
