<svg width="17" height="18" viewBox="0 0 17 18" fill="none" xmlns="http://www.w3.org/2000/svg">
<circle cx="8.5" cy="8.67688" r="8.5" fill="#272727"/>
<path d="M12.764 10.7863L11.5054 9.52773C11.0559 9.07822 10.2917 9.25804 10.1119 9.84238C9.97705 10.247 9.52754 10.4717 9.12299 10.3818C8.22397 10.157 7.01031 8.98832 6.78555 8.04436C6.6507 7.63978 6.9204 7.19027 7.32496 7.05544C7.90932 6.87564 8.08912 6.11148 7.63962 5.66197L6.381 4.40335C6.02139 4.08869 5.48198 4.08869 5.16733 4.40335L4.31326 5.25741C3.4592 6.15643 4.40317 8.53881 6.51585 10.6515C8.62853 12.7642 11.0109 13.7531 11.9099 12.8541L12.764 12C13.0787 11.6404 13.0787 11.101 12.764 10.7863Z" fill="white"/>
</svg>
