<svg width="17" height="18" viewBox="0 0 17 18" fill="none" xmlns="http://www.w3.org/2000/svg">
<circle cx="8.5" cy="8.67688" r="8.5" fill="#272727"/>
<path d="M9.9668 8.66039L13.0009 10.5785V6.66125L9.9668 8.66039Z" fill="#FDFDFD"/>
<path d="M4 6.66138V10.5786L7.03414 8.66051L4 6.66138Z" fill="#FDFDFD"/>
<path d="M12.4382 5.52063H4.56321C4.28252 5.52063 4.05977 5.72988 4.01758 5.99932L8.50073 8.95302L12.9839 5.99932C12.9417 5.72988 12.7189 5.52063 12.4382 5.52063Z" fill="#FDFDFD"/>
<path d="M9.45023 9.0002L8.65429 9.52445C8.60704 9.55539 8.5536 9.57057 8.4996 9.57057C8.4456 9.57057 8.39216 9.55539 8.34491 9.52445L7.54897 8.99963L4.01758 11.2333C4.06089 11.5005 4.28252 11.7081 4.56208 11.7081H12.4371C12.7167 11.7081 12.9383 11.5005 12.9816 11.2333L9.45023 9.0002Z" fill="#FDFDFD"/>
</svg>
