<svg width="17" height="18" viewBox="0 0 17 18" fill="none" xmlns="http://www.w3.org/2000/svg">
<circle cx="8.5" cy="8.67688" r="8.5" fill="#272727"/>
<path d="M8.62361 4.17892C6.63395 4.11187 5 5.70479 5 7.6793C5 9.92016 7.15046 11.5464 8.35578 13.8852C8.41698 14.0039 8.58792 14.0041 8.64933 13.8854C9.73972 11.7809 11.6033 10.3698 11.9487 8.34243C12.3063 6.24449 10.7506 4.25063 8.62361 4.17892ZM8.50238 9.51388C7.48919 9.51388 6.66781 8.69248 6.66781 7.6793C6.66781 6.66613 7.48921 5.84473 8.50238 5.84473C9.51558 5.84473 10.337 6.66613 10.337 7.6793C10.337 8.69248 9.51558 9.51388 8.50238 9.51388Z" fill="white"/>
</svg>
