<svg width="28" height="29" viewBox="0 0 28 29" fill="none" xmlns="http://www.w3.org/2000/svg">
<circle cx="14.0067" cy="14.6769" r="13.9931" fill="#272727"/>
<path d="M10.2931 20.3897L10.5478 20.5167C11.609 21.1514 12.7976 21.4477 13.9862 21.4477C17.7217 21.4477 20.778 18.4008 20.778 14.6768C20.778 12.8995 20.0564 11.1645 18.7829 9.89494C17.5094 8.62541 15.8115 7.90601 13.9862 7.90601C10.2506 7.90601 7.19432 10.9529 7.23677 14.7192C7.23677 15.9887 7.61881 17.2159 8.25554 18.2738L8.42534 18.5278L7.74615 21.0245L10.2931 20.3897Z" fill="white"/>
<path d="M17.5086 16.3565L16.5109 15.3588C16.1546 15.0025 15.5489 15.145 15.4063 15.6082C15.2994 15.9289 14.9431 16.1071 14.6224 16.0358C13.9098 15.8577 12.9477 14.9312 12.7696 14.183C12.6627 13.8623 12.8765 13.506 13.1972 13.3991C13.6604 13.2565 13.8029 12.6508 13.4466 12.2945L12.4489 11.2968C12.1638 11.0474 11.7363 11.0474 11.4868 11.2968L10.8098 11.9738C10.1328 12.6864 10.8811 14.5749 12.5558 16.2496C14.2305 17.9243 16.119 18.7082 16.8316 17.9956L17.5086 17.3186C17.758 17.0335 17.758 16.6059 17.5086 16.3565Z" fill="#272727"/>
</svg>
