<svg width="223" height="150" viewBox="0 0 223 150" fill="none" xmlns="http://www.w3.org/2000/svg">
<rect y="0.17688" width="223" height="149" rx="20" fill="url(#paint0_linear_9309_1772)" style="mix-blend-mode:multiply"/>
<ellipse cx="16.5" cy="15.1769" rx="3.5" ry="3" fill="white"/>
<circle cx="29" cy="15.1769" r="3" fill="white"/>
<ellipse cx="41.5" cy="15.1769" rx="3.5" ry="3" fill="white"/>
<path d="M126.735 91.9447L128.561 90.1567C137.006 90.4287 137.136 90.1367 137.507 89.2807L139.828 83.7106L140 83.1826L139.811 82.7206C139.712 82.4766 139.406 81.7486 134.132 76.7905V74.1825C140.217 68.4024 140.087 68.1064 139.74 67.2603L137.43 61.6323C137.083 60.7882 136.952 60.4582 128.567 60.6842L126.741 58.8242C126.93 56.0844 126.834 53.3327 126.455 50.6121L126.22 50.0861L120.188 47.486C119.3 47.086 118.987 46.942 113.292 53.0581L110.732 53.0201C104.869 46.848 104.591 46.96 103.713 47.31L98.1045 49.5461C97.2262 49.8961 96.9159 50.0201 97.2566 58.4202L95.4454 60.2002C87.0038 59.9282 86.874 60.2242 86.5069 61.0762L84.1825 66.6483L84 67.1823L84.1907 67.6464C84.29 67.8864 84.5841 68.6064 89.8698 73.5704V76.1705C83.785 81.9506 83.9168 82.2466 84.2657 83.0946L86.5739 88.7287C86.9268 89.5907 87.0525 89.8967 95.4353 89.6807L97.2607 91.5507C97.0715 94.2863 97.1646 97.0338 97.5386 99.7508L97.7739 100.281L103.844 102.897C104.727 103.261 105.033 103.391 110.712 97.2968L113.272 97.3288C119.144 103.509 119.444 103.389 120.302 103.047L125.898 100.817C126.782 100.471 127.09 100.349 126.735 91.9447ZM102.684 78.8965C101.976 77.0726 101.831 75.0832 102.265 73.1779C102.7 71.2726 103.696 69.5363 105.127 68.1869C106.559 66.8375 108.363 65.935 110.312 65.5928C112.262 65.2506 114.271 65.4838 116.087 66.2631C117.903 67.0425 119.445 68.3334 120.519 69.9738C121.594 71.6141 122.154 73.5309 122.128 75.4836C122.102 77.4364 121.491 79.338 120.373 80.95C119.255 82.562 117.68 83.8125 115.844 84.5446C113.339 85.5106 110.547 85.4586 108.081 84.4C105.615 83.3415 103.674 81.3626 102.684 78.8965Z" fill="white"/>
<defs>
<linearGradient id="paint0_linear_9309_1772" x1="-13.9375" y1="0.176881" x2="231.141" y2="159.916" gradientUnits="userSpaceOnUse">
<stop stop-color="#5398FF"/>
<stop offset="1" stop-color="#0055A2"/>
</linearGradient>
</defs>
</svg>
